<svg xmlns="http://www.w3.org/2000/svg" version="1.1" xmlns:xlink="http://www.w3.org/1999/xlink" xmlns:svgjs="http://svgjs.dev/svgjs" width="1000" height="1000" viewBox="0 0 1000 1000"><rect width="1000" height="1000" fill="#ffffff"></rect><g transform="matrix(0.7,0,0,0.7,149.84897959183672,150.19913061224486)"><svg viewBox="0 0 343 343" data-background-color="#883d1a" preserveAspectRatio="xMidYMid meet" height="999" width="1000" xmlns="http://www.w3.org/2000/svg" xmlns:xlink="http://www.w3.org/1999/xlink"><g id="tight-bounds" transform="matrix(1,0,0,1,0.07400000000001228,0.07400000000001228)"><svg viewBox="0 0 342.8515585177538 342.8515585177538" height="342.8515585177538" width="342.8515585177538"><g><svg></svg></g><g><svg viewBox="0 0 342.8515585177538 342.8515585177538" height="342.8515585177538" width="342.8515585177538"><g><path d="M0 171.426c0-94.676 76.75-171.426 171.426-171.426 94.676 0 171.426 76.75 171.426 171.426 0 94.676-76.75 171.426-171.426 171.426-94.676 0-171.426-76.75-171.426-171.426zM171.426 339.668c92.918 0 168.242-75.325 168.242-168.242 0-92.918-75.325-168.242-168.242-168.243-92.918 0-168.242 75.325-168.243 168.243 0 92.918 75.325 168.242 168.243 168.242z" data-fill-palette-color="tertiary" fill="#000000" stroke="transparent"></path><ellipse rx="164.56874808852183" ry="164.56874808852183" cx="171.4257792588769" cy="171.4257792588769" fill="#000000" stroke="transparent" stroke-width="0" fill-opacity="1" data-fill-palette-color="tertiary"></ellipse></g><g transform="matrix(1,0,0,1,64.84655864529836,105.4461587192537)"><svg viewBox="0 0 213.15844122715708 131.9592410792464" height="131.9592410792464" width="213.15844122715708"><g><svg viewBox="0 0 213.15844122715708 131.9592410792464" height="131.9592410792464" width="213.15844122715708"><g><svg viewBox="0 0 213.15844122715708 131.9592410792464" height="131.9592410792464" width="213.15844122715708"><g transform="matrix(1,0,0,1,0,80.05923356047568)"><svg viewBox="0 0 213.15844122715708 51.90000751877073" height="51.90000751877073" width="213.15844122715708"><g id="textblocktransform"><svg viewBox="0 0 213.15844122715708 51.90000751877073" height="51.90000751877073" width="213.15844122715708" id="textblock"><g><svg viewBox="0 0 213.15844122715708 35.29974740987872" height="35.29974740987872" width="213.15844122715708"><g transform="matrix(1,0,0,1,0,0)"><svg width="213.15844122715708" viewBox="1.71 -28.66 176.01 29.15" height="35.29974740987872" data-palette-color="#883d1a"><path d="M14.99 0L1.86 0 1.71-2.44 4.79-3.22Q4.88-3.47 4.96-4.49 5.03-5.52 5.08-7.15 5.13-8.79 5.13-10.74L5.13-10.74 5.13-17.87Q5.13-19.92 5.08-21.56 5.03-23.19 4.96-24.24 4.88-25.29 4.79-25.44L4.79-25.44 1.71-26.22 1.86-28.66 14.99-28.66 15.14-26.22 12.01-25.44Q11.91-25.24 11.84-24.19 11.77-23.14 11.74-21.51 11.72-19.87 11.72-17.87L11.72-17.87 11.72-10.74Q11.72-8.84 11.74-7.23 11.77-5.62 11.84-4.57 11.91-3.52 12.01-3.22L12.01-3.22 15.14-2.44 14.99 0ZM30.27 0L17.77 0 17.62-2.25 20.65-3.08Q20.7-3.27 20.75-3.96 20.8-4.64 20.85-5.69 20.9-6.74 20.9-7.96L20.9-7.96 20.94-11.67Q20.94-13.18 20.85-14.28 20.75-15.38 20.51-16.65L20.51-16.65 17.38-17.33 17.38-19.53 25.97-21.73 27.34-20.9 27.05-18.02 27.19-17.97Q28.71-19.92 30.54-20.87 32.37-21.83 34.37-21.83L34.37-21.83Q36.47-21.83 38.13-20.8 39.79-19.78 40.74-17.8 41.7-15.82 41.7-13.04L41.7-13.04 41.7-8.01Q41.7-6.35 41.75-4.91 41.79-3.47 41.94-3.08L41.94-3.08 44.97-2.25 44.82 0 32.57 0 32.42-2.25 35.2-3.08Q35.3-3.56 35.35-4.35 35.4-5.13 35.42-6.1 35.45-7.08 35.45-7.96L35.45-7.96 35.45-12.06Q35.45-13.92 34.89-15.06 34.32-16.21 33.42-16.75 32.52-17.29 31.39-17.29L31.39-17.29Q30.17-17.29 29.1-16.75 28.02-16.21 27.19-15.19L27.19-15.19 27.19-8.01Q27.19-6.35 27.27-4.91 27.34-3.47 27.49-3.08L27.49-3.08 30.42-2.25 30.27 0ZM62.54-5.52L63.76-4.1Q63.03-2 61.1-0.76 59.17 0.49 56.78 0.49L56.78 0.49Q53.41 0.49 51.24-1.49 49.07-3.47 49.07-7.42L49.07-7.42 49.21-18.31 45.8-18.31 45.8-19.82 54.15-26.46 55.66-26.46 55.56-19.58 55.46-8.01Q55.46-5.96 56.46-5.08 57.47-4.2 59.22-4.2L59.22-4.2Q60.1-4.2 60.98-4.54 61.86-4.88 62.54-5.52L62.54-5.52ZM62.45-18.31L53.12-18.31 53.12-21.39 62.45-21.39 62.45-18.31ZM75.58 0.39L75.58 0.39Q72.4 0.39 69.94-1.03 67.47-2.44 66.08-4.88 64.69-7.32 64.69-10.4L64.69-10.4Q64.69-13.82 66.25-16.38 67.81-18.95 70.33-20.41 72.84-21.88 75.72-21.83L75.72-21.83Q80.07-21.83 82.41-19.17 84.76-16.5 84.76-12.26L84.76-12.26 84.76-11.08 70.4-11.08 70.4-13.62 79.92-13.62 79.19-12.45 79.19-14.16Q79.19-16.41 78.17-17.77 77.14-19.14 75.33-19.14L75.33-19.14Q74.16-19.14 73.16-18.46 72.16-17.77 71.6-16.38 71.04-14.99 71.04-12.89L71.04-12.89 71.04-11.87Q71.04-8.5 72.89-6.4 74.75-4.3 77.82-4.3L77.82-4.3Q79.48-4.3 80.85-4.91 82.22-5.52 83.49-6.98L83.49-6.98 85-5.57Q83.64-2.64 81.14-1.12 78.65 0.39 75.58 0.39ZM101.11 0L87.25 0 87.1-2.25 90.13-3.08Q90.18-3.27 90.22-3.98 90.27-4.69 90.32-5.74 90.37-6.79 90.37-7.96L90.37-7.96 90.42-11.62Q90.42-13.09 90.32-14.23 90.22-15.38 89.98-16.65L89.98-16.65 86.86-17.33 86.86-19.53 95.3-21.73 96.62-20.9 96.43-17.04 96.57-16.99Q97.94-19.73 99.38-20.7 100.82-21.68 102.38-21.68L102.38-21.68Q103.7-21.68 104.68-20.95 105.65-20.21 105.65-18.65L105.65-18.65Q105.65-17.09 104.6-16.21 103.55-15.33 102.09-15.33L102.09-15.33Q100.92-15.33 99.99-15.72 99.06-16.11 97.99-17.19L97.99-17.19 99.36-17.09Q98.57-16.55 97.91-15.72 97.26-14.89 96.72-13.82L96.72-13.82 96.77-9.96Q96.82-8.15 96.87-6.71 96.91-5.27 96.96-4.32 97.01-3.37 97.01-3.08L97.01-3.08 101.26-2.34 101.11 0ZM119.76 0L107.26 0 107.12-2.25 110.14-3.08Q110.19-3.27 110.24-3.96 110.29-4.64 110.34-5.69 110.39-6.74 110.39-7.96L110.39-7.96 110.44-11.67Q110.44-13.18 110.34-14.28 110.24-15.38 110-16.65L110-16.65 106.87-17.33 106.87-19.53 115.47-21.73 116.83-20.9 116.54-18.02 116.69-17.97Q118.2-19.92 120.03-20.87 121.86-21.83 123.86-21.83L123.86-21.83Q125.96-21.83 127.62-20.8 129.28-19.78 130.24-17.8 131.19-15.82 131.19-13.04L131.19-13.04 131.19-8.01Q131.19-6.35 131.24-4.91 131.29-3.47 131.43-3.08L131.43-3.08 134.46-2.25 134.31 0 122.06 0 121.91-2.25 124.69-3.08Q124.79-3.56 124.84-4.35 124.89-5.13 124.91-6.1 124.94-7.08 124.94-7.96L124.94-7.96 124.94-12.06Q124.94-13.92 124.38-15.06 123.82-16.21 122.91-16.75 122.01-17.29 120.89-17.29L120.89-17.29Q119.67-17.29 118.59-16.75 117.52-16.21 116.69-15.19L116.69-15.19 116.69-8.01Q116.69-6.35 116.76-4.91 116.83-3.47 116.98-3.08L116.98-3.08 119.91-2.25 119.76 0ZM147.64 0.39L147.64 0.39Q144.47 0.39 142-1.03 139.54-2.44 138.14-4.88 136.75-7.32 136.75-10.4L136.75-10.4Q136.75-13.82 138.32-16.38 139.88-18.95 142.39-20.41 144.91-21.88 147.79-21.83L147.79-21.83Q152.13-21.83 154.48-19.17 156.82-16.5 156.82-12.26L156.82-12.26 156.82-11.08 142.47-11.08 142.47-13.62 151.99-13.62 151.25-12.45 151.25-14.16Q151.25-16.41 150.23-17.77 149.2-19.14 147.4-19.14L147.4-19.14Q146.23-19.14 145.22-18.46 144.22-17.77 143.66-16.38 143.1-14.99 143.1-12.89L143.1-12.89 143.1-11.87Q143.1-8.5 144.96-6.4 146.81-4.3 149.89-4.3L149.89-4.3Q151.55-4.3 152.91-4.91 154.28-5.52 155.55-6.98L155.55-6.98 157.07-5.57Q155.7-2.64 153.21-1.12 150.72 0.39 147.64 0.39ZM173.18 0L159.31 0 159.16-2.25 162.19-3.08Q162.24-3.27 162.29-3.98 162.34-4.69 162.38-5.74 162.43-6.79 162.43-7.96L162.43-7.96 162.48-11.62Q162.48-13.09 162.38-14.23 162.29-15.38 162.04-16.65L162.04-16.65 158.92-17.33 158.92-19.53 167.37-21.73 168.68-20.9 168.49-17.04 168.63-16.99Q170-19.73 171.44-20.7 172.88-21.68 174.45-21.68L174.45-21.68Q175.76-21.68 176.74-20.95 177.72-20.21 177.72-18.65L177.72-18.65Q177.72-17.09 176.67-16.21 175.62-15.33 174.15-15.33L174.15-15.33Q172.98-15.33 172.05-15.72 171.13-16.11 170.05-17.19L170.05-17.19 171.42-17.09Q170.64-16.55 169.98-15.72 169.32-14.89 168.78-13.82L168.78-13.82 168.83-9.96Q168.88-8.15 168.93-6.71 168.98-5.27 169.03-4.32 169.07-3.37 169.07-3.08L169.07-3.08 173.32-2.34 173.18 0Z" opacity="1" transform="matrix(1,0,0,1,0,0)" fill="#ffffff" class="wordmark-text-0" data-fill-palette-color="quaternary" id="text-0"></path></svg></g></svg></g><g transform="matrix(1,0,0,1,0,43.633170579413246)"><svg viewBox="0 0 213.15844122715708 8.26683693935748" height="8.26683693935748" width="213.15844122715708"><g transform="matrix(1,0,0,1,0,0)"><svg width="213.15844122715708" viewBox="3.65 -40.3 1066.1299999999999 41.349999999999994" height="8.26683693935748" data-palette-color="#883d1a"><path d="M24.9-40.3Q27.45-40.3 30.88-39.55 34.3-38.8 35.85-37.95L35.85-37.95 35.85-28.45 34.5-28.45Q29.8-36.4 22-36.4L22-36.4Q18.55-36.4 15.75-34.43 12.95-32.45 11.35-28.98 9.75-25.5 9.75-21.15L9.75-21.15Q9.75-16.15 11.3-11.98 12.85-7.8 16.07-5.3 19.3-2.8 24.05-2.8L24.05-2.8Q28.2-2.8 36.1-9.5L36.1-9.5 37.5-7.25 28.3-0.1Q26.5 0.55 24.83 0.78 23.15 1 21.25 1L21.25 1Q16.1 1 12.1-1.55 8.1-4.1 5.88-8.58 3.65-13.05 3.65-18.75L3.65-18.75Q3.65-24.6 7-29.58 10.35-34.55 15.35-37.43 20.35-40.3 24.9-40.3L24.9-40.3ZM65.7-40.3Q70.9-40.3 74.92-37.75 78.95-35.2 81.15-30.7 83.35-26.2 83.35-20.5L83.35-20.5Q83.35-14.65 80-9.7 76.65-4.75 71.67-1.88 66.7 1 62.15 1L62.15 1Q56.95 1 52.95-1.55 48.95-4.1 46.72-8.58 44.5-13.05 44.5-18.75L44.5-18.75Q44.5-24.6 47.85-29.58 51.2-34.55 56.17-37.43 61.15-40.3 65.7-40.3L65.7-40.3ZM62.8-36.4Q59.4-36.4 56.6-34.43 53.8-32.45 52.2-28.98 50.6-25.5 50.6-21.15L50.6-21.15Q50.6-16.15 52.17-12 53.75-7.85 57-5.38 60.25-2.9 65.05-2.9L65.05-2.9Q68.45-2.9 71.25-4.88 74.05-6.85 75.65-10.33 77.25-13.8 77.25-18.15L77.25-18.15Q77.25-23.2 75.67-27.33 74.1-31.45 70.85-33.93 67.6-36.4 62.8-36.4L62.8-36.4ZM128.25-38L123.5-34.35 123.5 0 121.09 0 97.25-30.7 97.25-4.4 102.15-1.75 101.25 0 90.15 0 90.15-1.3 94.84-4.95 94.84-34.8 89.7-37.55 90.55-39.3 97.84-39.3 121.09-9.35 121.09-34.9 116.25-37.55 117.15-39.3 128.25-39.3 128.25-38ZM171.69-38L166.94-34.35 166.94 0 164.54 0 140.69-30.7 140.69-4.4 145.59-1.75 144.69 0 133.59 0 133.59-1.3 138.29-4.95 138.29-34.8 133.14-37.55 133.99-39.3 141.29-39.3 164.54-9.35 164.54-34.9 159.69-37.55 160.59-39.3 171.69-39.3 171.69-38ZM209.24 0.9L206.74 0 177.04 0 177.04-1.3 181.74-5 181.74-35.75 176.59-37.55 177.44-39.3 206.24-39.3 208.74-40.2 208.74-28.95 207.49-28.6 201.59-37.35 187.39-37.35 187.39-21.05 195.64-21.05 199.29-27.6 200.59-27.6 200.59-12.3 198.84-11.4 195.74-19.1 187.39-19.1 187.39-1.95 201.39-1.95 207.99-11.75 209.24-11.35 209.24 0.9ZM239.44-40.3Q241.99-40.3 245.41-39.55 248.84-38.8 250.39-37.95L250.39-37.95 250.39-28.45 249.04-28.45Q244.34-36.4 236.54-36.4L236.54-36.4Q233.09-36.4 230.29-34.43 227.49-32.45 225.89-28.98 224.29-25.5 224.29-21.15L224.29-21.15Q224.29-16.15 225.84-11.98 227.39-7.8 230.61-5.3 233.84-2.8 238.59-2.8L238.59-2.8Q242.74-2.8 250.64-9.5L250.64-9.5 252.04-7.25 242.84-0.1Q241.04 0.55 239.36 0.78 237.69 1 235.79 1L235.79 1Q230.64 1 226.64-1.55 222.64-4.1 220.41-8.58 218.19-13.05 218.19-18.75L218.19-18.75Q218.19-24.6 221.54-29.58 224.89-34.55 229.89-37.43 234.89-40.3 239.44-40.3L239.44-40.3ZM293.13-40.2L293.13-27.95 291.88-27.6 285.28-37.35 278.88-37.35 278.88-3.6 284.08-1.75 283.19 0 268.49 0 268.49-1.3 273.19-5 273.19-37.35 266.99-37.35 260.38-27.6 259.13-27.95 259.13-40.2 261.63-39.3 290.63-39.3 293.13-40.2ZM315.58-1.65L314.73 0.1 300.03 0.1 300.03-1.2 304.73-4.85 304.73-35.65 299.58-37.5 300.43-39.25 315.13-39.25 315.13-37.95 310.38-34.3 310.38-3.6 315.58-1.65ZM359.53-38L354.78-34.35 354.78 0 352.38 0 328.53-30.7 328.53-4.4 333.43-1.75 332.53 0 321.43 0 321.43-1.3 326.13-4.95 326.13-34.8 320.98-37.55 321.83-39.3 329.13-39.3 352.38-9.35 352.38-34.9 347.53-37.55 348.43-39.3 359.53-39.3 359.53-38ZM399.78-15.35L399.78-7.75 401.13-5.75 391.93-0.1Q389.88 0.6 387.98 0.8 386.08 1 383.88 1L383.88 1Q378.43 1 374.23-1.55 370.03-4.1 367.7-8.58 365.38-13.05 365.38-18.75L365.38-18.75Q365.38-24.6 368.88-29.58 372.38-34.55 377.6-37.43 382.83-40.3 387.53-40.3L387.53-40.3Q390.33-40.3 394.05-39.55 397.78-38.8 399.48-37.95L399.48-37.95 399.48-28.7 398.18-28.7Q393.03-36.4 384.63-36.4L384.63-36.4Q380.93-36.4 377.93-34.43 374.93-32.45 373.2-28.98 371.48-25.5 371.48-21.15L371.48-21.15Q371.48-16.2 373.15-12.05 374.83-7.9 378.23-5.43 381.63-2.95 386.68-2.95L386.68-2.95Q386.93-2.95 388.23-2.93 389.53-2.9 391.05-3.25 392.58-3.6 394.13-4.35L394.13-4.35 394.13-16.35 386.48-18.55 387.33-20.3 404.53-20.3 404.53-19 399.78-15.35ZM444.52-39.75Q449.57-39.75 453.47-37.27 457.37-34.8 459.5-30.4 461.62-26 461.62-20.45L461.62-20.45Q461.62-14.75 458.35-9.93 455.07-5.1 450.22-2.27 445.37 0.55 440.97 0.55L440.97 0.55Q438.62 0.55 436.27 0.3L436.27 0.3Q432.37 0.05 430.27 0.05L430.27 0.05 424.27 0.05 424.27-1.25 428.97-4.95 428.97-35.85 423.82-37.55 424.67-39.3 430.22-39.3Q434.92-39.3 439.52-39.6L439.52-39.6Q442.92-39.8 444.52-39.8L444.52-39.8 444.52-39.75ZM442.42-3Q446.12-3 449.12-4.98 452.12-6.95 453.85-10.4 455.57-13.85 455.57-18.15L455.57-18.15Q455.57-23.3 453.95-27.55 452.32-31.8 448.97-34.33 445.62-36.85 440.67-36.85L440.67-36.85Q437.37-36.85 434.62-34.9L434.62-34.9 434.62-4.3Q437.87-2.95 442.37-2.95L442.37-2.95 442.42-3ZM505.22-1.6L504.37 0.15 495.37 0.15 484.07-17.7 481.72-19.45 482.37-20.75 485.27-20.75Q488.82-20.75 490.87-22.48 492.92-24.2 492.92-27.25L492.92-27.25Q492.92-31.3 490.67-34 488.42-36.7 484.07-36.7L484.07-36.7Q481.17-36.7 478.77-35L478.77-35 478.77-3.5 483.97-1.65 483.12 0.1 468.42 0.1 468.42-1.2 473.12-4.85 473.12-35.7 467.97-37.5 468.82-39.25 474.12-39.25Q478.67-39.25 483.17-39.55L483.17-39.55Q486.37-39.75 487.97-39.75L487.97-39.75Q491.22-39.75 493.77-38.4 496.32-37.05 497.72-34.77 499.12-32.5 499.12-29.75L499.12-29.75Q499.12-27.25 497.52-24.95 495.92-22.65 493.39-20.98 490.87-19.3 488.07-18.45L488.07-18.45 491.22-17.35 499.22-4.7 505.22-1.6ZM540.67 0.9L538.17 0 508.47 0 508.47-1.3 513.17-5 513.17-35.75 508.02-37.55 508.87-39.3 537.67-39.3 540.17-40.2 540.17-28.95 538.92-28.6 533.02-37.35 518.82-37.35 518.82-21.05 527.07-21.05 530.72-27.6 532.02-27.6 532.02-12.3 530.27-11.4 527.17-19.1 518.82-19.1 518.82-1.95 532.82-1.95 539.42-11.75 540.67-11.35 540.67 0.9ZM588.96-1.75L588.06 0 573.56 0 573.56-1.3 578.06-5 574.06-14.65 557.06-14.65 552.66-4.6 561.66-1.75 560.81 0 545.81 0 545.81-1.3 550.36-4.9 564.76-37.7 569.26-40.25 583.96-4.9 588.96-1.75ZM573.26-16.6L565.81-34.6 557.91-16.6 573.26-16.6ZM639.51-1.6L638.61 0.15 623.91 0.15 623.91-1.15 628.61-4.85 628.61-33.25 615.11 0.1 612.66 0.1 599.26-33.65 599.26-4.4 604.46-1.65 603.61 0.1 592.16 0.1 592.16-1.2 596.86-4.9 596.86-34.55 591.71-37.5 592.56-39.25 602.76-39.25 615.46-7.1 628.21-39.25 639.06-39.25 639.06-37.95 634.31-34.25 634.31-3.6 639.51-1.6ZM667.71-9Q667.71-10.55 666.46-11.93 665.21-13.3 663.36-14.38 661.51-15.45 658.21-17.15L658.21-17.15Q654.36-19.1 652.03-20.5 649.71-21.9 648.08-23.83 646.46-25.75 646.46-28.1L646.46-28.1Q646.46-30.6 648.51-33.48 650.56-36.35 653.53-38.33 656.51-40.3 659.01-40.3L659.01-40.3Q662.06-40.3 666.08-39.55 670.11-38.8 671.96-37.95L671.96-37.95 671.96-28.5 670.61-28.5Q668.11-32.6 665.11-34.83 662.11-37.05 658.81-37.05L658.81-37.05Q655.76-37.05 654.01-35.18 652.26-33.3 652.26-30.3L652.26-30.3Q652.26-28.65 653.56-27.23 654.86-25.8 656.78-24.65 658.71-23.5 662.01-21.85L662.01-21.85Q665.76-19.95 668.03-18.57 670.31-17.2 671.88-15.33 673.46-13.45 673.46-11.15L673.46-11.15Q673.46-8.65 671.26-5.78 669.06-2.9 665.88-0.93 662.71 1.05 660.11 1.05L660.11 1.05Q656.91 1.05 652.51 0.3 648.11-0.45 646.21-1.3L646.21-1.3 646.21-10.75 647.56-10.75Q650.21-6.65 653.53-4.42 656.86-2.2 660.36-2.2L660.36-2.2Q662.56-2.2 664.23-3.15 665.91-4.1 666.81-5.68 667.71-7.25 667.71-9L667.71-9ZM729.15-40.2L729.15-27.95 727.9-27.6 721.3-37.35 714.9-37.35 714.9-3.6 720.1-1.75 719.2 0 704.5 0 704.5-1.3 709.2-5 709.2-37.35 703-37.35 696.4-27.6 695.15-27.95 695.15-40.2 697.65-39.3 726.65-39.3 729.15-40.2ZM757.75-40.3Q762.95-40.3 766.98-37.75 771-35.2 773.2-30.7 775.4-26.2 775.4-20.5L775.4-20.5Q775.4-14.65 772.05-9.7 768.7-4.75 763.73-1.88 758.75 1 754.2 1L754.2 1Q749 1 745-1.55 741-4.1 738.78-8.58 736.55-13.05 736.55-18.75L736.55-18.75Q736.55-24.6 739.9-29.58 743.25-34.55 748.23-37.43 753.2-40.3 757.75-40.3L757.75-40.3ZM754.85-36.4Q751.45-36.4 748.65-34.43 745.85-32.45 744.25-28.98 742.65-25.5 742.65-21.15L742.65-21.15Q742.65-16.15 744.23-12 745.8-7.85 749.05-5.38 752.3-2.9 757.1-2.9L757.1-2.9Q760.5-2.9 763.3-4.88 766.1-6.85 767.7-10.33 769.3-13.8 769.3-18.15L769.3-18.15Q769.3-23.2 767.73-27.33 766.15-31.45 762.9-33.93 759.65-36.4 754.85-36.4L754.85-36.4ZM818.15-40.3Q820.7-40.3 824.12-39.55 827.55-38.8 829.1-37.95L829.1-37.95 829.1-28.45 827.75-28.45Q823.05-36.4 815.25-36.4L815.25-36.4Q811.8-36.4 809-34.43 806.2-32.45 804.6-28.98 803-25.5 803-21.15L803-21.15Q803-16.15 804.55-11.98 806.1-7.8 809.32-5.3 812.55-2.8 817.3-2.8L817.3-2.8Q821.45-2.8 829.35-9.5L829.35-9.5 830.75-7.25 821.55-0.1Q819.75 0.55 818.07 0.78 816.4 1 814.5 1L814.5 1Q809.35 1 805.35-1.55 801.35-4.1 799.12-8.58 796.9-13.05 796.9-18.75L796.9-18.75Q796.9-24.6 800.25-29.58 803.6-34.55 808.6-37.43 813.6-40.3 818.15-40.3L818.15-40.3ZM877.09-1.75L876.19 0 861.69 0 861.69-1.3 866.19-5 862.19-14.65 845.19-14.65 840.79-4.6 849.79-1.75 848.94 0 833.94 0 833.94-1.3 838.49-4.9 852.89-37.7 857.39-40.25 872.09-4.9 877.09-1.75ZM861.39-16.6L853.94-34.6 846.04-16.6 861.39-16.6ZM917.09-1.6L916.24 0.15 907.24 0.15 895.94-17.7 893.59-19.45 894.24-20.75 897.14-20.75Q900.69-20.75 902.74-22.48 904.79-24.2 904.79-27.25L904.79-27.25Q904.79-31.3 902.54-34 900.29-36.7 895.94-36.7L895.94-36.7Q893.04-36.7 890.64-35L890.64-35 890.64-3.5 895.84-1.65 894.99 0.1 880.29 0.1 880.29-1.2 884.99-4.85 884.99-35.7 879.84-37.5 880.69-39.25 885.99-39.25Q890.54-39.25 895.04-39.55L895.04-39.55Q898.24-39.75 899.84-39.75L899.84-39.75Q903.09-39.75 905.64-38.4 908.19-37.05 909.59-34.77 910.99-32.5 910.99-29.75L910.99-29.75Q910.99-27.25 909.39-24.95 907.79-22.65 905.27-20.98 902.74-19.3 899.94-18.45L899.94-18.45 903.09-17.35 911.09-4.7 917.09-1.6ZM952.54 0.9L950.04 0 920.34 0 920.34-1.3 925.04-5 925.04-35.75 919.89-37.55 920.74-39.3 949.54-39.3 952.04-40.2 952.04-28.95 950.79-28.6 944.89-37.35 930.69-37.35 930.69-21.05 938.94-21.05 942.59-27.6 943.89-27.6 943.89-12.3 942.14-11.4 939.04-19.1 930.69-19.1 930.69-1.95 944.69-1.95 951.29-11.75 952.54-11.35 952.54 0.9ZM993.19 0.9L990.69 0 960.99 0 960.99-1.3 965.69-5 965.69-35.75 960.54-37.55 961.39-39.3 990.19-39.3 992.69-40.2 992.69-28.95 991.44-28.6 985.54-37.35 971.34-37.35 971.34-21.05 979.59-21.05 983.24-27.6 984.54-27.6 984.54-12.3 982.79-11.4 979.69-19.1 971.34-19.1 971.34-1.95 985.34-1.95 991.94-11.75 993.19-11.35 993.19 0.9ZM1038.43-1.6L1037.58 0.15 1028.58 0.15 1017.28-17.7 1014.93-19.45 1015.58-20.75 1018.48-20.75Q1022.03-20.75 1024.08-22.48 1026.13-24.2 1026.13-27.25L1026.13-27.25Q1026.13-31.3 1023.88-34 1021.63-36.7 1017.28-36.7L1017.28-36.7Q1014.38-36.7 1011.98-35L1011.98-35 1011.98-3.5 1017.18-1.65 1016.33 0.1 1001.63 0.1 1001.63-1.2 1006.33-4.85 1006.33-35.7 1001.18-37.5 1002.03-39.25 1007.33-39.25Q1011.88-39.25 1016.38-39.55L1016.38-39.55Q1019.58-39.75 1021.18-39.75L1021.18-39.75Q1024.43-39.75 1026.98-38.4 1029.53-37.05 1030.93-34.77 1032.33-32.5 1032.33-29.75L1032.33-29.75Q1032.33-27.25 1030.73-24.95 1029.13-22.65 1026.61-20.98 1024.08-19.3 1021.28-18.45L1021.28-18.45 1024.43-17.35 1032.43-4.7 1038.43-1.6ZM1064.03-9Q1064.03-10.55 1062.78-11.93 1061.53-13.3 1059.68-14.38 1057.83-15.45 1054.53-17.15L1054.53-17.15Q1050.68-19.1 1048.36-20.5 1046.03-21.9 1044.41-23.83 1042.78-25.75 1042.78-28.1L1042.78-28.1Q1042.78-30.6 1044.83-33.48 1046.88-36.35 1049.86-38.33 1052.83-40.3 1055.33-40.3L1055.33-40.3Q1058.38-40.3 1062.41-39.55 1066.43-38.8 1068.28-37.95L1068.28-37.95 1068.28-28.5 1066.93-28.5Q1064.43-32.6 1061.43-34.83 1058.43-37.05 1055.13-37.05L1055.13-37.05Q1052.08-37.05 1050.33-35.18 1048.58-33.3 1048.58-30.3L1048.58-30.3Q1048.58-28.65 1049.88-27.23 1051.18-25.8 1053.11-24.65 1055.03-23.5 1058.33-21.85L1058.33-21.85Q1062.08-19.95 1064.36-18.57 1066.63-17.2 1068.21-15.33 1069.78-13.45 1069.78-11.15L1069.78-11.15Q1069.78-8.65 1067.58-5.78 1065.38-2.9 1062.21-0.93 1059.03 1.05 1056.43 1.05L1056.43 1.05Q1053.23 1.05 1048.83 0.3 1044.43-0.45 1042.53-1.3L1042.53-1.3 1042.53-10.75 1043.88-10.75Q1046.53-6.65 1049.86-4.42 1053.18-2.2 1056.68-2.2L1056.68-2.2Q1058.88-2.2 1060.56-3.15 1062.23-4.1 1063.13-5.68 1064.03-7.25 1064.03-9L1064.03-9Z" opacity="1" transform="matrix(1,0,0,1,0,0)" fill="#ffffff" class="slogan-text-1" data-fill-palette-color="quaternary" id="text-1"></path></svg></g></svg></g></svg></g></svg></g><g transform="matrix(1,0,0,1,70.71586713179303,0)"><svg viewBox="0 0 71.72670696357103 71.72581039094115" height="71.72581039094115" width="71.72670696357103"><g><svg xmlns="http://www.w3.org/2000/svg" xmlns:xlink="http://www.w3.org/1999/xlink" version="1.1" x="0" y="0" viewBox="2 2 60.000750000000004 60" style="enable-background:new 0 0 64 64;" xml:space="preserve" height="71.72581039094115" width="71.72670696357103" class="icon-icon-0" data-fill-palette-color="quaternary" id="icon-0"><rect x="45" y="30" width="2" height="2" fill="#ffffff" data-fill-palette-color="quaternary"></rect><rect x="41" y="30" width="2" height="2" fill="#ffffff" data-fill-palette-color="quaternary"></rect><rect x="37" y="30" width="2" height="2" fill="#ffffff" data-fill-palette-color="quaternary"></rect><path d="M62 13v-2H50h-8V9c0-3.859-3.141-7-7-7h-6c-3.859 0-7 3.141-7 7v2h-8c-0.553 0-1 0.447-1 1v19c0 0.633 0.13 1.234 0.346 1.792L2.75 35.532C2.309 35.646 2 36.044 2 36.5s0.309 0.854 0.75 0.968L16 40.894V46H5v2h11v2H8v2h8v2h-5v2h5.839l14.845 4.948C31.786 60.982 31.894 61 32 61s0.214-0.018 0.316-0.052l15-5C47.725 55.812 48 55.431 48 55V40.894l10-2.586v14.455l-1.895 3.789c-0.141 0.281-0.141 0.613 0 0.895l2 4C58.275 61.786 58.621 62 59 62s0.725-0.214 0.895-0.553l2-4c0.141-0.281 0.141-0.613 0-0.895L60 52.764V37.791l1.25-0.323C61.691 37.354 62 36.956 62 36.5s-0.309-0.854-0.75-0.968l-10.596-2.741C50.87 32.234 51 31.633 51 31V21h5v-2h-5v-2h8v-2h-8v-2H62zM59 58.764L58.118 57 59 55.236 59.882 57 59 58.764zM24 9c0-2.757 2.243-5 5-5h6c2.757 0 5 2.243 5 5v2h-2V9c0-1.654-1.346-3-3-3h-6c-1.654 0-3 1.346-3 3v2h-2V9zM36 11h-8V9c0-0.552 0.448-1 1-1h6c0.552 0 1 0.448 1 1V11zM15 13h34v4c0 1.654-1.346 3-3 3h-2-4-4v-3c0-0.553-0.447-1-1-1h-6c-0.553 0-1 0.447-1 1v3h-4-4-2c-1.654 0-3-1.346-3-3V13zM49 31c0 0.68-0.236 1.3-0.618 1.804-0.006 0.007-0.015 0.012-0.021 0.02-0.141 0.183-0.3 0.345-0.472 0.488-0.008 0.007-0.016 0.014-0.025 0.02-0.156 0.127-0.324 0.232-0.5 0.325-0.03 0.015-0.058 0.034-0.088 0.048-0.161 0.078-0.33 0.135-0.503 0.182-0.042 0.011-0.081 0.029-0.123 0.038C46.439 33.972 46.222 34 46 34H18c-0.222 0-0.439-0.028-0.651-0.076-0.043-0.009-0.082-0.027-0.123-0.038-0.172-0.047-0.342-0.104-0.502-0.182-0.031-0.014-0.059-0.033-0.089-0.048-0.175-0.092-0.344-0.198-0.499-0.324-0.008-0.007-0.016-0.014-0.025-0.02-0.172-0.143-0.331-0.305-0.472-0.488-0.006-0.008-0.014-0.012-0.021-0.02C15.236 32.3 15 31.68 15 31V20.974C15.838 21.609 16.87 22 18 22h1v3c0 0.553 0.447 1 1 1h4c0.553 0 1-0.447 1-1v-3h4 6 4v3c0 0.553 0.447 1 1 1h4c0.553 0 1-0.447 1-1v-3h1c1.13 0 2.162-0.391 3-1.026V31zM21 22h2v2h-2V22zM34 20h-4v-2h4V20zM41 22h2v2h-2V22zM46 54.279l-14 4.667-14-4.667V41.412l13.75 3.556C31.832 44.989 31.916 45 32 45s0.168-0.011 0.25-0.032L46 41.412V54.279zM32 42.967L6.993 36.5l7.504-1.941c0.457 0.45 0.998 0.811 1.599 1.06 0.111 0.046 0.23 0.069 0.343 0.107 0.19 0.063 0.376 0.134 0.575 0.174C17.335 35.965 17.665 36 18 36h28c0.335 0 0.665-0.035 0.986-0.1 0.199-0.04 0.385-0.112 0.575-0.174 0.114-0.038 0.233-0.061 0.343-0.107 0.601-0.249 1.143-0.61 1.599-1.06l7.504 1.941L32 42.967z" fill="#ffffff" data-fill-palette-color="quaternary"></path></svg></g></svg></g><g></g></svg></g></svg></g></svg></g></svg></g><defs></defs></svg><rect width="342.8515585177538" height="342.8515585177538" fill="none" stroke="none" visibility="hidden"></rect></g></svg></g></svg>